<svg width="398" height="337" viewBox="0 0 398 337" fill="none" xmlns="http://www.w3.org/2000/svg">
<rect x="146.7" y="1.7" width="44.2" height="44.2" rx="5.1" stroke="#5299D3" stroke-width="3.4"/>
<rect x="151.7" y="297.7" width="37.4" height="37.4" rx="5.1" stroke="#5299D3" stroke-width="3.4"/>
<rect x="351.95" y="104.8" width="44.2" height="44.2" rx="5.1" stroke="#5299D3" stroke-width="3.4"/>
<rect x="231.7" y="24.7" width="37.4" height="37.4" rx="5.1" stroke="#5299D3" stroke-width="3.4"/>
<rect x="1.7" y="190.7" width="37.4" height="37.4" rx="5.1" stroke="#5299D3" stroke-width="3.4"/>
<rect x="326.45" y="213.6" width="37.4" height="37.4" rx="5.1" stroke="#5299D3" stroke-width="3.4"/>
<rect x="89.7" y="256.7" width="37.4" height="37.4" rx="5.1" stroke="#5299D3" stroke-width="3.4"/>
<rect x="62.0999" y="99.7" width="44.2" height="44.2" rx="5.1" stroke="#5299D3" stroke-width="3.4"/>
<rect x="262.7" y="266.3" width="44.2" height="44.2" rx="5.1" stroke="#5299D3" stroke-width="3.4"/>
<g filter="url(#filter0_d_1033_13980)">
<rect x="159" y="109.9" width="102" height="102" rx="6.8" fill="url(#paint0_linear_1033_13980)"/>
</g>
<path d="M176.455 176.557L218.636 139.979L238.962 133.874L232.262 154.111L192.279 191.875L197.052 172.364L176.455 176.557Z" fill="url(#paint1_linear_1033_13980)"/>
<path d="M218.636 139.979L176.455 176.557L197.052 172.364L192.279 191.875L232.262 154.111M218.636 139.979L238.962 133.874L232.262 154.111M218.636 139.979L232.262 154.111" stroke="white" stroke-width="2.55" stroke-linejoin="round"/>
<line x1="243.65" y1="64.4096" x2="231.2" y2="114.56" stroke="#5299D3" stroke-width="3.4" stroke-dasharray="3.4 3.4"/>
<line x1="350.774" y1="128.517" x2="256.424" y2="159.117" stroke="#5299D3" stroke-width="3.4" stroke-dasharray="3.4 3.4"/>
<line x1="325.642" y1="229.546" x2="251.692" y2="189.596" stroke="#5299D3" stroke-width="3.4" stroke-dasharray="3.4 3.4"/>
<line x1="283.561" y1="265.764" x2="230.861" y2="209.664" stroke="#5299D3" stroke-width="3.4" stroke-dasharray="3.4 3.4"/>
<line x1="110.798" y1="255.798" x2="168.798" y2="197.798" stroke="#5299D3" stroke-width="3.4" stroke-dasharray="3.4 3.4"/>
<line x1="40.5667" y1="207.356" x2="158.567" y2="176.256" stroke="#5299D3" stroke-width="3.4" stroke-dasharray="3.4 3.4"/>
<line x1="106.957" y1="125.332" x2="159.657" y2="147.432" stroke="#5299D3" stroke-width="3.4" stroke-dasharray="3.4 3.4"/>
<line x1="173.582" y1="47.3766" x2="197.982" y2="109.276" stroke="#5299D3" stroke-width="3.4" stroke-dasharray="3.4 3.4"/>
<line x1="168.354" y1="298.575" x2="192.354" y2="205.575" stroke="#5299D3" stroke-width="3.4" stroke-dasharray="3.4 3.4"/>
<path d="M91.2574 126.379L85.9146 127.414C82.3057 125.603 80.0765 123.522 78.7791 120.278L79.778 114.92L77.8898 109.9H73.0236C71.5607 109.9 70.4088 111.109 70.6273 112.555C71.1727 116.166 72.7809 122.713 77.4818 127.414C82.4185 132.351 89.5286 134.493 93.4418 135.344C94.953 135.673 96.2934 134.494 96.2934 132.948V128.298L91.2574 126.379Z" stroke="#5299D3" stroke-width="2.55" stroke-linecap="round" stroke-linejoin="round"/>
<path d="M339.672 229.107L345.243 233.007L350.814 229.107" stroke="#5299D3" stroke-width="2.55" stroke-linecap="round" stroke-linejoin="round"/>
<path d="M334.101 238.02V226.878C334.101 225.647 335.098 224.65 336.329 224.65H354.157C355.387 224.65 356.385 225.647 356.385 226.878V238.02C356.385 239.251 355.387 240.249 354.157 240.249H336.329C335.098 240.249 334.101 239.251 334.101 238.02Z" stroke="#5299D3" stroke-width="2.55"/>
<path d="M116.73 272.34C116.73 277.222 107.89 285.6 107.89 285.6C107.89 285.6 99.0498 277.222 99.0498 272.34C99.0498 267.458 103.008 263.5 107.89 263.5C112.772 263.5 116.73 267.458 116.73 272.34Z" stroke="#5299D3" stroke-width="2.55"/>
<path d="M107.89 273.443C108.5 273.443 108.995 272.948 108.995 272.338C108.995 271.728 108.5 271.233 107.89 271.233C107.28 271.233 106.785 271.728 106.785 272.338C106.785 272.948 107.28 273.443 107.89 273.443Z" fill="black" stroke="#5299D3" stroke-width="2.55" stroke-linecap="round" stroke-linejoin="round"/>
<path d="M277.363 296.391V294.988C277.363 291.115 280.503 287.976 284.376 287.976C288.249 287.976 291.388 291.115 291.388 294.988V296.391" stroke="#5299D3" stroke-width="2.55" stroke-linecap="round"/>
<path d="M284.374 287.975C286.698 287.975 288.582 286.092 288.582 283.768C288.582 281.444 286.698 279.56 284.374 279.56C282.051 279.56 280.167 281.444 280.167 283.768C280.167 286.092 282.051 287.975 284.374 287.975Z" stroke="#5299D3" stroke-width="2.55" stroke-linecap="round" stroke-linejoin="round"/>
<path d="M284.376 302.001C292.121 302.001 298.401 295.721 298.401 287.976C298.401 280.23 292.121 273.951 284.376 273.951C276.63 273.951 270.351 280.23 270.351 287.976C270.351 295.721 276.63 302.001 284.376 302.001Z" stroke="#5299D3" stroke-width="2.55"/>
<path d="M261.397 43.8254L240.2 52.7504L244.175 43.8254L240.2 34.9004L261.397 43.8254Z" stroke="#5299D3" stroke-width="2.55" stroke-linecap="round" stroke-linejoin="round"/>
<path d="M244.105 43.8254H261.397" stroke="#5299D3" stroke-width="2.55" stroke-linecap="round" stroke-linejoin="round"/>
<path d="M360.45 127.325C360.45 134.601 366.348 140.5 373.625 140.5C380.901 140.5 386.8 134.601 386.8 127.325C386.8 120.048 380.901 114.15 373.625 114.15C366.348 114.15 360.45 120.048 360.45 127.325Z" stroke="#5299D3" stroke-width="2.55" stroke-linecap="round" stroke-linejoin="round"/>
<path d="M374.943 114.213C374.943 114.213 378.895 119.418 378.895 127.323C378.895 135.228 374.943 140.433 374.943 140.433" stroke="#5299D3" stroke-width="2.55" stroke-linecap="round" stroke-linejoin="round"/>
<path d="M372.308 140.433C372.308 140.433 368.355 135.228 368.355 127.323C368.355 119.418 372.308 114.213 372.308 114.213" stroke="#5299D3" stroke-width="2.55" stroke-linecap="round" stroke-linejoin="round"/>
<path d="M361.28 131.935H385.971" stroke="#5299D3" stroke-width="2.55" stroke-linecap="round" stroke-linejoin="round"/>
<path d="M361.28 122.714H385.971" stroke="#5299D3" stroke-width="2.55" stroke-linecap="round" stroke-linejoin="round"/>
<path d="M178.877 19.4387L180.787 31.8546C181.044 33.5259 179.751 35.0332 178.06 35.0332H159.66C157.969 35.0332 156.676 33.5259 156.933 31.8546L158.843 19.4387C159.05 18.0927 160.208 17.0991 161.57 17.0991H176.15C177.511 17.0991 178.67 18.0927 178.877 19.4387Z" stroke="#5299D3" stroke-width="2.55" stroke-linecap="round" stroke-linejoin="round"/>
<path d="M171.618 12.9603C171.618 11.4365 170.383 10.2012 168.859 10.2012C167.335 10.2012 166.1 11.4365 166.1 12.9603" stroke="#5299D3" stroke-width="2.55" stroke-linecap="round" stroke-linejoin="round"/>
<path d="M169.975 327.451C175.843 327.451 180.6 322.694 180.6 316.826C180.6 310.958 175.843 306.201 169.975 306.201C164.107 306.201 159.35 310.958 159.35 316.826C159.35 322.694 164.107 327.451 169.975 327.451Z" stroke="#5299D3" stroke-width="2.55" stroke-linecap="round" stroke-linejoin="round"/>
<path d="M166.787 313.639C166.787 309.92 172.631 309.92 172.631 313.639C172.631 316.295 169.975 315.764 169.975 318.951" stroke="#5299D3" stroke-width="2.55" stroke-linecap="round" stroke-linejoin="round"/>
<path d="M169.975 323.211L169.985 323.199" stroke="#5299D3" stroke-width="2.55" stroke-linecap="round" stroke-linejoin="round"/>
<path d="M26.0267 220.584C27.8688 220.584 29.3621 219.091 29.3621 217.249C29.3621 215.407 27.8688 213.914 26.0267 213.914C24.1846 213.914 22.6914 215.407 22.6914 217.249C22.6914 219.091 24.1846 220.584 26.0267 220.584Z" stroke="#5299D3" stroke-width="2.55" stroke-linecap="round" stroke-linejoin="round"/>
<path d="M26.0267 205.02C27.8688 205.02 29.3621 203.527 29.3621 201.685C29.3621 199.843 27.8688 198.35 26.0267 198.35C24.1846 198.35 22.6914 199.843 22.6914 201.685C22.6914 203.527 24.1846 205.02 26.0267 205.02Z" stroke="#5299D3" stroke-width="2.55" stroke-linecap="round" stroke-linejoin="round"/>
<path d="M12.6859 212.803C14.528 212.803 16.0213 211.31 16.0213 209.468C16.0213 207.626 14.528 206.132 12.6859 206.132C10.8439 206.132 9.35059 207.626 9.35059 209.468C9.35059 211.31 10.8439 212.803 12.6859 212.803Z" stroke="#5299D3" stroke-width="2.55" stroke-linecap="round" stroke-linejoin="round"/>
<path d="M23.2483 203.353L15.4658 207.8" stroke="#5299D3" stroke-width="2.55"/>
<path d="M15.4658 211.135L23.2483 215.582" stroke="#5299D3" stroke-width="2.55"/>
<defs>
<filter id="filter0_d_1033_13980" x="131.8" y="91.1997" width="156.4" height="156.4" filterUnits="userSpaceOnUse" color-interpolation-filters="sRGB">
<feFlood flood-opacity="0" result="BackgroundImageFix"/>
<feColorMatrix in="SourceAlpha" type="matrix" values="0 0 0 0 0 0 0 0 0 0 0 0 0 0 0 0 0 0 127 0" result="hardAlpha"/>
<feOffset dy="8.5"/>
<feGaussianBlur stdDeviation="13.6"/>
<feComposite in2="hardAlpha" operator="out"/>
<feColorMatrix type="matrix" values="0 0 0 0 0.309804 0 0 0 0 0.4 0 0 0 0 0.933333 0 0 0 0.3 0"/>
<feBlend mode="normal" in2="BackgroundImageFix" result="effect1_dropShadow_1033_13980"/>
<feBlend mode="normal" in="SourceGraphic" in2="effect1_dropShadow_1033_13980" result="shape"/>
</filter>
<linearGradient id="paint0_linear_1033_13980" x1="159" y1="160.9" x2="261" y2="160.9" gradientUnits="userSpaceOnUse">
<stop stop-color="#5299D3"/>
<stop offset="1" stop-color="#92DCE5"/>
</linearGradient>
<linearGradient id="paint1_linear_1033_13980" x1="181.824" y1="154.607" x2="230.951" y2="166.625" gradientUnits="userSpaceOnUse">
<stop stop-color="#5299D3"/>
<stop offset="1" stop-color="#92DCE5"/>
</linearGradient>
</defs>
</svg>
